<?xml version="1.0" encoding="utf-8"?>
<!-- Generator: Adobe Illustrator 21.1.0, SVG Export Plug-In . SVG Version: 6.00 Build 0)  -->
<svg version="1.1" xmlns="http://www.w3.org/2000/svg" xmlns:xlink="http://www.w3.org/1999/xlink" x="0px" y="0px"
	 viewBox="0 0 268 201.6" style="enable-background:new 0 0 268 201.6;" xml:space="preserve">
<style type="text/css">
	.st0{fill:#86E2D5;}
	.st1{fill:#851B25;}
	.st2{fill:#6A111D;}
	.st3{fill:#1BBC9B;}
	.st4{fill:#A74949;}
	.st5{fill:#F5F5F5;}
	.st6{fill:#CFFFFF;}
	.st7{fill:#FFFFFF;}
	.st8{display:none;fill:#0071BC;stroke:#29ABE2;stroke-miterlimit:10;}
	.st9{fill:#E6E9ED;}
	.st10{fill:#22A7F0;}
	.st11{opacity:0.1;}
	.st12{fill:#333333;}
	.st13{fill:#E2F8F5;}
	.st14{fill:#736357;}
	.st15{fill:url(#SVGID_1_);}
	.st16{fill:#FFDC64;}
	.st17{fill:#E6E6E6;}
	.st18{fill:#C7C1BC;}
	.st19{fill:#FFC850;}
	.st20{fill:#FFF082;}
</style>
<g id="Layer_1">
</g>
<g id="Layer_2">
</g>
<g id="Layer_3">
</g>
<g id="Layer_4">
	<g>
		<path class="st19" d="M134,201.6c-1.5,0-3,0-4.5,0c-15.1-0.1-30.1-0.9-44.6-2.3c-1.6-0.2-3.2-0.3-4.8-0.5
			c-2.5-0.3-4.9-0.6-7.3-0.9c-23.4-2.9-44.6-7.5-63-13.5C4,182.4,0,176.9,0,170.6V165c0-6,3.7-11.1,8.9-13.3V134
			c0-1.2,0-2.6,0.1-4.1l0-1.1c0-1.2,0.1-2.4,0.2-3.6l0-0.6c0.1-1.3,0.2-2.7,0.4-4.1l0.1-0.8c0.1-1.2,0.3-2.4,0.5-3.6l0.1-0.6
			c0.2-1.4,0.4-2.8,0.7-4.2l0-0.2c0.2-1.3,0.5-2.7,0.8-4.1l0.1-0.3c10.3-46.3,45.8-82.5,91.3-94.1c0.9-2.6,2.3-4.9,4.3-6.9
			C111,2,115.9,0,121,0h26c5.2,0,10,2,13.6,5.8c1.9,2,3.4,4.4,4.3,6.9c1.3,0.3,2.6,0.7,4,1.1l0.2,0.1c1,0.3,2,0.6,3,0.9l0.4,0.1
			c1,0.3,1.9,0.6,2.8,0.9l0.5,0.2c0.9,0.3,1.8,0.7,2.7,1l0.4,0.2c1,0.4,1.9,0.7,2.8,1.1l0.2,0.1c47,19.5,77.3,64.9,77.3,115.7v17.7
			c5.2,2.2,8.9,7.3,8.9,13.3v5.6c0,0.8-0.1,1.5-0.2,2.2c-0.8,5-4.1,9.2-8.8,11.1c-0.3,0.1-0.6,0.2-0.9,0.4
			c-4.2,1.4-8.5,2.7-12.9,3.9c-1.1,0.3-2.2,0.6-3.4,0.9c-3,0.8-6.3,1.6-9.6,2.3c-0.6,0.1-1.2,0.3-1.8,0.4c-1.5,0.3-3.1,0.7-4.7,1
			c-2.2,0.4-4.3,0.9-6.6,1.3c-1.6,0.3-3.2,0.6-4.8,0.9c-2.3,0.4-4.6,0.8-6.9,1.1c-4,0.6-8.2,1.2-12.4,1.7
			c-18.2,2.3-37.3,3.5-56.7,3.7C137,201.6,135.5,201.6,134,201.6z"/>
		<g>
			<path class="st16" d="M134,18.9C70.4,18.9,18.9,70.4,18.9,134v26.6h230.3V134C249.1,70.4,197.6,18.9,134,18.9z"/>
			<path class="st19" d="M253.6,160.6H80.9c-2.4,0-4.4-2-4.4-4.4V134c0-21,3.9-40.6,10.7-57.6c1-2.6,4.8-2.1,5.3,0.6l9.3,54
				c0.7,4.2,4.4,7.4,8.7,7.4h47.1c4.3,0,8-3.1,8.7-7.4l17.4-101c-15-7.2-31.9-11.2-49.7-11.2c-17,0-33,3.7-47.5,10.3c0,0,0,0,0,0
				c-0.1,0-2.1,1.1-2.1,1.1C45.6,48.7,18.9,88.2,18.9,134v26.6h-4.4c-2.4,0-4.4,2-4.4,4.4v5.6c0,1.9,1.2,3.6,3,4.2
				c31.7,10.4,74.2,16.7,121,16.7s89.3-6.3,121-16.7c1.8-0.6,3-2.3,3-4.2V165C258,162.6,256,160.6,253.6,160.6z"/>
			<path class="st20" d="M143.2,138.4h-18.3c-4.8,0-8.7-3.8-8.9-8.6l-3.8-110.7c-0.2-5,3.8-9.2,8.9-9.2H147c5,0,9,4.2,8.9,9.2
				L152,129.9C151.8,134.6,147.9,138.4,143.2,138.4z"/>
			<g>
				<path class="st16" d="M255,166.4c-31.7,7.4-74.2,11.9-121,11.9s-89.3-4.5-121-11.9c-1.5-0.3-2.5-1.2-2.8-2.2
					c-0.1,0.3-0.2,0.6-0.2,0.9v5.6c0,1.9,1.2,3.6,3,4.2c31.7,10.4,74.2,16.7,121,16.7s89.3-6.3,121-16.7c1.8-0.6,3-2.3,3-4.2V165
					c0-0.3-0.1-0.6-0.2-0.9C257.5,165.2,256.4,166,255,166.4z"/>
				<path class="st16" d="M127.9,129.9l-2.7-110.7c-0.1-5,2.7-9.2,6.3-9.2H121c-5,0-9,4.2-8.9,9.2l3.8,110.7
					c0.2,4.8,4.1,8.6,8.9,8.6h9.3C130.8,138.4,128,134.6,127.9,129.9z"/>
			</g>
		</g>
	</g>
</g>
</svg>
