<?xml version="1.0" encoding="utf-8"?>
<!-- Generator: Adobe Illustrator 21.1.0, SVG Export Plug-In . SVG Version: 6.00 Build 0)  -->
<svg version="1.1" xmlns="http://www.w3.org/2000/svg" xmlns:xlink="http://www.w3.org/1999/xlink" x="0px" y="0px"
	 viewBox="0 0 1280 726" style="enable-background:new 0 0 1280 726;" xml:space="preserve">
<style type="text/css">
	.st0{fill:#86E2D5;}
	.st1{fill:#851B25;}
	.st2{fill:#6A111D;}
	.st3{fill:#1BBC9B;}
	.st4{fill:#A74949;}
	.st5{fill:#F5F5F5;}
	.st6{fill:#CFFFFF;}
	.st7{fill:#FFFFFF;}
	.st8{display:none;fill:#0071BC;stroke:#29ABE2;stroke-miterlimit:10;}
	.st9{fill:#E6E9ED;}
	.st10{fill:#22A7F0;}
	.st11{opacity:0.1;}
	.st12{fill:#333333;}
	.st13{fill:#E2F8F5;}
	.st14{fill:#736357;}
	.st15{fill:url(#SVGID_1_);}
	.st16{fill:#FFDC64;}
	.st17{fill:#E6E6E6;}
	.st18{font-family:'OpenSans-Bold';}
	.st19{font-size:84px;}
	.st20{fill:#C7C1BC;}
	.st21{font-family:'OpenSans';}
	.st22{font-size:48px;}
	.st23{fill:#DBD7D4;}
	.st24{fill:#A59B94;}
	.st25{fill:#8F8279;}
	.st26{fill:#FFC850;}
	.st27{fill:#FFF082;}
</style>
<g id="Layer_1">
</g>
<g id="Layer_2">
</g>
<g id="Layer_3">
	<linearGradient id="SVGID_1_" gradientUnits="userSpaceOnUse" x1="41.5716" y1="7.3164" x2="1265.5104" y2="734.78">
		<stop  offset="0" style="stop-color:#FFFFFF"/>
		<stop  offset="1.564538e-02" style="stop-color:#F4F3F2"/>
		<stop  offset="6.699997e-02" style="stop-color:#D6D1CE"/>
		<stop  offset="0.1247" style="stop-color:#BBB3AE"/>
		<stop  offset="0.1885" style="stop-color:#A49A92"/>
		<stop  offset="0.2606" style="stop-color:#92867C"/>
		<stop  offset="0.3448" style="stop-color:#84766B"/>
		<stop  offset="0.4488" style="stop-color:#7A6B60"/>
		<stop  offset="0.5948" style="stop-color:#756559"/>
		<stop  offset="1" style="stop-color:#736357"/>
	</linearGradient>
	<rect x="0" class="st15" width="1280" height="726"/>
	<path class="st16" d="M759.6,278.8H586.9c0,0,0,0,0,0h168.3v-26.6c0-48-29.4-89.1-71.1-106.4c-0.1,0-0.2-0.1-0.2-0.1
		c-0.9-0.4-1.7-0.7-2.6-1c-0.1-0.1-0.3-0.1-0.4-0.2c-0.8-0.3-1.7-0.6-2.5-0.9c-0.1-0.1-0.3-0.1-0.4-0.2c-0.8-0.3-1.7-0.6-2.5-0.9
		c-0.1,0-0.3-0.1-0.4-0.1c-0.9-0.3-1.8-0.6-2.7-0.8c-0.1,0-0.1,0-0.2-0.1c-3-0.9-6.1-1.6-9.2-2.2c-0.2,0-0.4-0.1-0.5-0.1
		c-0.2,0-0.4-0.1-0.5-0.1l0.1-1.8c0.2-5-3.8-9.2-8.9-9.2h-15.5H627h0c-5,0-9,4.2-8.9,9.2l0.1,1.8c-45,8.6-80.7,43.4-90.6,88
		c0,0.1,0,0.2-0.1,0.3c-0.3,1.2-0.5,2.5-0.8,3.7c0,0.1,0,0.1,0,0.2c-0.2,1.3-0.4,2.6-0.6,3.9c0,0.2,0,0.4-0.1,0.5
		c-0.2,1.1-0.3,2.2-0.4,3.3c0,0.3-0.1,0.5-0.1,0.8c-0.1,1.3-0.3,2.5-0.3,3.8c0,0.2,0,0.3,0,0.5c-0.1,1.1-0.1,2.2-0.2,3.3
		c0,0.3,0,0.7,0,1c0,1.3-0.1,2.5-0.1,3.8v26.6h-4.4c-2.4,0-4.4,2-4.4,4.4v0v5.6v0c0,1.9,1.2,3.6,3,4.2c17.4,5.7,38.2,10.2,61.1,13.1
		c2.4,0.3,4.7,0.6,7.1,0.8c1.5,0.2,3.1,0.3,4.7,0.5c13.9,1.4,28.6,2.2,43.7,2.3c1.5,0,2.9,0,4.4,0s2.9,0,4.4,0
		c19.4-0.2,38.1-1.4,55.5-3.6c4.1-0.5,8.1-1.1,12.1-1.7c2.3-0.4,4.5-0.7,6.8-1.1c1.6-0.3,3.1-0.6,4.7-0.8c2.2-0.4,4.3-0.8,6.4-1.3
		c1.5-0.3,3.1-0.6,4.6-1c0.6-0.1,1.2-0.3,1.7-0.4c3.2-0.7,6.3-1.5,9.3-2.2c1.1-0.3,2.2-0.6,3.2-0.9c4.3-1.2,8.4-2.4,12.4-3.7
		c0.1,0,0.1-0.1,0.2-0.1c1.5-0.6,2.5-1.9,2.7-3.4c0-0.2,0.1-0.5,0.1-0.7v-5.6C764,280.8,762,278.8,759.6,278.8z"/>
	<text transform="matrix(1 0 0 1 395.6904 437.0586)" class="st17 st18 st19">niner hacks</text>
	<g>
		<text transform="matrix(1 0 0 1 408.0745 602.8018)" class="st20 st21 st22">february 17-18, 2018</text>
	</g>
	<text transform="matrix(1 0 0 1 271.9141 538.8018)" class="st20 st21 st22">questions? info@ninerhacks.com</text>
	<g>
		<ellipse class="st23" cx="1116.6" cy="412.1" rx="240.7" ry="190.1"/>
		<path class="st23" d="M640-281.5C189.2-281.5-176.2,7.1-176.2,363s365.4,644.5,816.2,644.5s816.2-288.6,816.2-644.5
			S1090.8-281.5,640-281.5z M1284.6,462.4c-76.8,16.4-49.2,52.9-152.7,55.8c-150.6,4.2-197.6-29.4-200.8-67.1s26.9-84.3,114-82.2
			c139.1,3.4,171.4-76.7,242.6-68.8C1344.2,306.4,1317.4,455.5,1284.6,462.4z"/>
		<path class="st23" d="M1452.3,424c0.1-0.5,0.2-0.9,0.2-1.4l-0.1,0c2.3-19.6,3.7-39.5,3.7-59.6c0-101.5-29.8-197.5-82.7-282.9
			l-692,66.4c0,0-143.5,244.2-140.3,254.3c1.4,4.4,8.2,46.4,15.5,92.4l-5.9,0.7v248h749.3c66.3-71.9,113.9-155.2,138-245.3
			c0.2,0,0.3,0,0.5,0c2.6-9.7,4.8-19.6,6.9-29.4c0-0.2,0.1-0.4,0.1-0.6C1448.4,452.5,1450.6,438.3,1452.3,424z M922.7,506.5
			c-13.1-31.9-31.8-25.6-37.2-16.4c-52.1,89.4-55.3,28.1-76.5,28.1s-25.4,48.7-38.3,48.7c-24.4,0-44.6-62.9-35.1-103.2
			c12.9-54.4,67-47.8,98.8-20.1s36.2-4.7,57.4-55.4c31.9-76.4,63.6-64.6,79.7-27.7c12.8,29.4,7.5,110.5-2.1,138.5
			C963.1,517.4,934.4,535,922.7,506.5z M1309.5,491.4c-12.2-35.4-27.1-59.2-43-59.2c-28.7,0-19.1,125.9-31.9,125.9
			c-12.8,0-31.9-59.2-44.6-59.2c-12.8,0-8,68-41.4,73s-30.3-30.2-55.8-22.7c-23.1,6.8-42.7-3.9-54.2-26.9
			c-18.1-36.1-18.2-175.3,3.2-196c43-41.5,223.2-69.2,267.8-50.4c43.4,18.4,79,124.2,68.5,183.8
			C1371.6,496.7,1335,565.7,1309.5,491.4z"/>
		<path class="st24" d="M1256.4,529.2c-24.4,10.1-154.9,74.9-167.6,69.2c-22-9.8-73.3-40.7-98-40.7c-49.4,0-172.4,55-218.9,47
			C713.3,594.6,591,491.2,573,466.2c-39.9-55.4,86.8-73.5,116.9-99c28.7-24.3,32.1-117.5,42.5-117.5c14.3,0,9.6,27.7,30.3,27.7
			c20.7,0,19.1-84.3,36.7-84.3c17.5,0,10.1,98.6,24.4,98.6s20.2-93.6,34.5-93.6s13.3,59.2,31.9,59.2c9.6,0,17.5-51.6,25.5-51.6
			c8,0,22.8,94.4,37.7,94.4c8,0,16.5-110.8,27.6-110.8s25.5,53.7,38.3,53.7s20.7-55,33.5-55c12.8,0,17.5,100.3,33.5,100.3
			c15.9,0,17.5-83.9,36.7-83.9s14.9,36.9,29.2,36.9s15.9-89.8,31.9-89.8c17,0,18.1,52,40.4,52c19.1,0,30.8-54.5,46.8-31.9
			c15.9,22.7,30.3,5,44.6-15.1s18.1,28.5,37.2,28.5c11.3,0,31.2-25.5,42.2-66.4c-23.5-45.3-53.4-87.9-88.7-127.3
			c-234.9-15.5-693.3-45-724-41.2c-41.4,5-184.9,234.1-184.9,234.1l46.8,527.9h881.4c38.9-47.6,70.2-99.4,92.3-154.5
			C1322.3,530.8,1279.2,519.8,1256.4,529.2z"/>
		<path class="st25" d="M640-281.5C189.2-281.5-176.2,7.1-176.2,363c0,17.3,1.1,34.4,2.8,51.3c122.8-5.3,566.9,14.6,602.1,21
			c41.4,7.6,50.3-162.9,87.9-111c21.3,29.4,42.5,8.4,64.8-62.1c12.5-39.4,32.9,26,64.8,26c23.8,0,47.8-206.4,67-213.2
			c19.1-6.7,37.2,66.3,57.4,66.3c23.4,0,31.9-141,56.3-141c19,0,46.8,181.3,65.9,181.3c18.1,0,19.7-65.5,34-65.5
			c22.9,0,20.7,54.1,36.7,54.1c12,0,23.8-83.5,40.9-83.5c12.8,0,23.4,65.5,40.4,65.5c21,0,39.3-135.1,56.3-143.5
			c17-8.4,36.1,166.2,55.3,166.2c19.6,0,27.6-109.1,46.8-67.1c19.1,42,34.5,23.5,53.1-42c6.8-23.8,51-3.4,72.3,42
			c14.3,30.5,30.5,7.7,44.8-27.8C1240.7-134,962.2-281.5,640-281.5z"/>
		<path class="st24" d="M1261.7,579.5c-36.4,0-105.7,70.5-124.3,70.5c-25.5,0-171.6-28.1-189.7-31.5c-34.3-6.3-26.3-77.4-48.6-77.4
			c-10.4,0-54.7,115.2-84.5,129.7c-19.4,9.4-63,23.7-107.6-53.5c-9.5-16.4-102.3-57.1-119-57.9c-49.9-2.5-264.6,45.3-264.6,45.3
			S156.8,326.5,123.5,326.5c-54.2,0-62.2,31.5-98.8,1.3c-25.8-21.3-44.6-105.7-108.4-78c-25.1,10.9-58,31.9-88.8,53.4
			c-2.3,19.7-3.6,39.7-3.6,59.9c0,167.9,81.3,320.7,214.5,435.4l1139.9,48.9c85.2-59.1,154.7-131.9,202.8-214.2
			C1330.2,611,1279.2,579.5,1261.7,579.5z"/>
		<path class="st14" d="M1182,672.7c-56.2,39.5-60.6,80.6-149.8,68c-25.2-3.5-76.5,64.2-114.8,40.3c-79.6-49.7-111.6-36.5-153-36.5
			c-41.4,0-48.9-81-69.1-81c-37.7,0-26.6,69.7-64.8,69.7c-30.1,0-23.9-136.8-52.1-136.8c-40.4,0-29.2,61.3-62.7,61.3
			c-27.1,0-70.1-279.5-79.7-417.9C428,125,425.1,3.7,455.1-17.2c54.2-37.8,70.1,317.2,118,317.2c52.6,0,57.4-299.6,86.1-299.6
			c28.7,0,35.1,118.3,54.2,115.8c19.1-2.5,51-168.7,67-168.7s47.8,198.9,63.8,198.9s47.8-193.9,63.8-193.9
			c15.9,0,31.9,118.3,51,118.3c19.1,0,57.4-138.5,79.7-141c22.3-2.5,57.4,188.8,82.9,188.8s38.3-193.9,57.4-193.9
			s60.6,269.4,79.7,269.4c11.8,0,50.2-94.7,78-167.4C1193.1-158,934.8-281.5,640-281.5c-296,0-555.1,124.4-698.2,310.6
			c27.3,0.8,56.6,223.1,79.7,223.1c47.8,0,45.9-257.4,70.1-287c31.9-39,85,5,95.6,118.3c13.3,142.3-8.3,369.2-44.6,387.7
			c-18.3,9.3-41.3-63.8-62.2-63.8c-44.3,0-75.3,122.1-100.8,122.1S-86.9,358-122,360.5c-12.3,0.9-32.2,18.4-52.7,40.5
			c24.9,338.2,380.1,606.5,814.6,606.5c316.6,0,590.8-142.4,726.2-350.5C1258.5,638.7,1210.7,652.5,1182,672.7z"/>
	</g>
</g>
<g id="Layer_4">
</g>
</svg>
