<?xml version="1.0" encoding="utf-8"?>
<!-- Generator: Adobe Illustrator 21.1.0, SVG Export Plug-In . SVG Version: 6.00 Build 0)  -->
<svg version="1.1" xmlns="http://www.w3.org/2000/svg" xmlns:xlink="http://www.w3.org/1999/xlink" x="0px" y="0px"
	 viewBox="0 0 1280 726" style="enable-background:new 0 0 1280 726;" xml:space="preserve">
<style type="text/css">
	.st0{fill:#86E2D5;}
	.st1{fill:#851B25;}
	.st2{fill:#6A111D;}
	.st3{fill:#1BBC9B;}
	.st4{fill:#A74949;}
	.st5{fill:#F5F5F5;}
	.st6{fill:#CFFFFF;}
	.st7{fill:#FFFFFF;}
	.st8{display:none;fill:#0071BC;stroke:#29ABE2;stroke-miterlimit:10;}
	.st9{fill:#E6E9ED;}
	.st10{fill:#22A7F0;}
	.st11{opacity:0.1;}
	.st12{fill:#333333;}
	.st13{fill:#E2F8F5;}
	.st14{fill:#736357;}
	.st15{fill:url(#SVGID_1_);}
	.st16{fill:#FFDC64;}
	.st17{fill:#E6E6E6;}
	.st18{font-family:'OpenSans-Bold';}
	.st19{font-size:84px;}
	.st20{fill:#C7C1BC;}
	.st21{font-family:'OpenSans';}
	.st22{font-size:48px;}
	.st23{fill:#E5ECF0;}
	.st24{fill:#CBD9E0;}
	.st25{fill:#B7AFA9;}
	.st26{fill:#A59B94;}
	.st27{fill:#8F8279;}
	.st28{fill:#FFC850;}
	.st29{fill:#FFF082;}
</style>
<g id="Layer_1">
</g>
<g id="Layer_2">
</g>
<g id="Layer_3">
	<linearGradient id="SVGID_1_" gradientUnits="userSpaceOnUse" x1="41.5716" y1="7.3164" x2="1265.5104" y2="734.78">
		<stop  offset="0" style="stop-color:#FFFFFF"/>
		<stop  offset="1.564538e-02" style="stop-color:#F4F3F2"/>
		<stop  offset="6.699997e-02" style="stop-color:#D6D1CE"/>
		<stop  offset="0.1247" style="stop-color:#BBB3AE"/>
		<stop  offset="0.1885" style="stop-color:#A49A92"/>
		<stop  offset="0.2606" style="stop-color:#92867C"/>
		<stop  offset="0.3448" style="stop-color:#84766B"/>
		<stop  offset="0.4488" style="stop-color:#7A6B60"/>
		<stop  offset="0.5948" style="stop-color:#756559"/>
		<stop  offset="1" style="stop-color:#736357"/>
	</linearGradient>
	<rect x="0" class="st15" width="1280" height="726"/>
	<path class="st16" d="M759.6,278.8H586.9c0,0,0,0,0,0h168.3v-26.6c0-48-29.4-89.1-71.1-106.4c-0.1,0-0.2-0.1-0.2-0.1
		c-0.9-0.4-1.7-0.7-2.6-1c-0.1-0.1-0.3-0.1-0.4-0.2c-0.8-0.3-1.7-0.6-2.5-0.9c-0.1-0.1-0.3-0.1-0.4-0.2c-0.8-0.3-1.7-0.6-2.5-0.9
		c-0.1,0-0.3-0.1-0.4-0.1c-0.9-0.3-1.8-0.6-2.7-0.8c-0.1,0-0.1,0-0.2-0.1c-3-0.9-6.1-1.6-9.2-2.2c-0.2,0-0.4-0.1-0.5-0.1
		c-0.2,0-0.4-0.1-0.5-0.1l0.1-1.8c0.2-5-3.8-9.2-8.9-9.2h-15.5H627h0c-5,0-9,4.2-8.9,9.2l0.1,1.8c-45,8.6-80.7,43.4-90.6,88
		c0,0.1,0,0.2-0.1,0.3c-0.3,1.2-0.5,2.5-0.8,3.7c0,0.1,0,0.1,0,0.2c-0.2,1.3-0.4,2.6-0.6,3.9c0,0.2,0,0.4-0.1,0.5
		c-0.2,1.1-0.3,2.2-0.4,3.3c0,0.3-0.1,0.5-0.1,0.8c-0.1,1.3-0.3,2.5-0.3,3.8c0,0.2,0,0.3,0,0.5c-0.1,1.1-0.1,2.2-0.2,3.3
		c0,0.3,0,0.7,0,1c0,1.3-0.1,2.5-0.1,3.8v26.6h-4.4c-2.4,0-4.4,2-4.4,4.4v0v5.6v0c0,1.9,1.2,3.6,3,4.2c17.4,5.7,38.2,10.2,61.1,13.1
		c2.4,0.3,4.7,0.6,7.1,0.8c1.5,0.2,3.1,0.3,4.7,0.5c13.9,1.4,28.6,2.2,43.7,2.3c1.5,0,2.9,0,4.4,0s2.9,0,4.4,0
		c19.4-0.2,38.1-1.4,55.5-3.6c4.1-0.5,8.1-1.1,12.1-1.7c2.3-0.4,4.5-0.7,6.8-1.1c1.6-0.3,3.1-0.6,4.7-0.8c2.2-0.4,4.3-0.8,6.4-1.3
		c1.5-0.3,3.1-0.6,4.6-1c0.6-0.1,1.2-0.3,1.7-0.4c3.2-0.7,6.3-1.5,9.3-2.2c1.1-0.3,2.2-0.6,3.2-0.9c4.3-1.2,8.4-2.4,12.4-3.7
		c0.1,0,0.1-0.1,0.2-0.1c1.5-0.6,2.5-1.9,2.7-3.4c0-0.2,0.1-0.5,0.1-0.7v-5.6C764,280.8,762,278.8,759.6,278.8z"/>
	<text transform="matrix(1 0 0 1 395.6904 437.0586)" class="st17 st18 st19">niner hacks</text>
	<g>
		<text transform="matrix(1 0 0 1 408.0745 602.8018)" class="st20 st21 st22">february 17-18, 2018</text>
	</g>
	<text transform="matrix(1 0 0 1 271.9141 538.8018)" class="st20 st21 st22">questions? info@ninerhacks.com</text>
	<g>
		<circle class="st23" cx="1079.2" cy="420.3" r="221.8"/>
		<path class="st24" d="M640-389c-415.3,0-752,336.7-752,752s336.7,752,752,752s752-336.7,752-752S1055.3-389,640-389z M1233.9,479
			c-70.8,19.1-45.3,61.7-140.7,65.1c-138.7,4.9-182.1-34.3-185-78.3c-2.9-44.1,24.8-98.4,105-96c128.1,3.9,157.9-89.5,223.5-80.3
			C1288.8,296.9,1264.1,470.9,1233.9,479z"/>
		<path class="st25" d="M1388.5,434.2c0.1-0.6,0.2-1.1,0.2-1.7l-0.1,0c2.1-22.9,3.4-46.1,3.4-69.5c0-118.4-27.5-230.4-76.2-330.1
			l-637.6,77.5c0,0-132.2,284.9-129.2,296.7c1.3,5.1,7.6,54.1,14.2,107.9l-5.4,0.8v289.3h690.4c61.1-83.9,104.9-181.1,127.1-286.3
			c0.1,0,0.3,0,0.4,0c2.4-11.4,4.5-22.8,6.3-34.4c0-0.2,0.1-0.4,0.1-0.7C1384.8,467.5,1386.9,450.9,1388.5,434.2z M900.5,530.4
			c-12-37.2-29.3-29.9-34.3-19.1c-48,104.3-50.9,32.8-70.5,32.8s-23.4,56.8-35.2,56.8c-22.5,0-41.1-73.4-32.3-120.4
			c11.9-63.4,61.7-55.8,91.1-23.5s33.4-5.5,52.9-64.6c29.4-89.1,58.6-75.4,73.4-32.3c11.8,34.3,6.9,128.9-2,161.6
			C937.7,543.2,911.2,563.7,900.5,530.4z M1256.9,512.8c-11.2-41.3-25-69-39.7-69c-26.5,0-17.6,146.9-29.4,146.9s-29.4-69-41.1-69
			s-7.3,79.3-38.2,85.2s-27.9-35.2-51.4-26.4c-21.3,8-39.4-4.6-49.9-31.3c-16.6-42.1-16.8-204.5,2.9-228.6
			c39.7-48.5,205.6-80.8,246.8-58.8c40,21.4,72.8,144.9,63.2,214.4C1314.1,519,1280.4,599.5,1256.9,512.8z"/>
		<path class="st26" d="M1207.9,556.9c-22.5,11.8-142.7,87.4-154.5,80.8c-20.2-11.4-67.6-47.5-90.3-47.5
			c-45.5,0-158.8,64.2-201.7,54.8c-53.9-11.8-166.6-132.4-183.1-161.6c-36.7-64.6,79.9-85.7,107.7-115.5
			c26.4-28.4,29.6-137.1,39.2-137.1c13.2,0,8.8,32.3,27.9,32.3s17.6-98.4,33.8-98.4s9.3,115.1,22.5,115.1s18.6-109.2,31.8-109.2
			s12.2,69,29.4,69c8.8,0,16.2-60.2,23.5-60.2s21.1,110.2,34.8,110.2c7.3,0,15.2-129.2,25.5-129.2s23.5,62.7,35.2,62.7
			s19.1-64.1,30.8-64.1s16.2,117,30.8,117s16.2-97.9,33.8-97.9s13.7,43.1,26.9,43.1s14.7-104.8,29.4-104.8
			c15.7,0,16.6,60.7,37.2,60.7c17.6,0,28.4-63.6,43.1-37.2s27.9,5.9,41.1-17.6s16.6,33.3,34.3,33.3c10.4,0,28.8-29.7,38.9-77.5
			c-21.7-52.8-49.2-102.5-81.7-148.5c-216.5-18.1-638.8-52.5-667.1-48.1c-38.2,5.9-170.4,273.2-170.4,273.2l43.1,615.9H1272
			c35.9-55.5,64.7-116,85.1-180.3C1268.6,558.8,1228.9,545.9,1207.9,556.9z"/>
		<path class="st27" d="M640-389c-415.3,0-752,336.7-752,752c0,20.2,1,40.1,2.6,59.9C3.7,416.7,413,440,445.4,447.5
			c38.2,8.8,46.4-190.1,81-129.5c19.6,34.3,39.2,9.8,59.7-72.5c11.5-46,30.4,30.4,59.7,30.4c21.9,0,44.1-240.9,61.7-248.7
			s34.3,77.4,52.9,77.4C782,104.5,789.8-60,812.3-60c17.5,0,43.1,211.5,60.7,211.5c16.6,0,18.1-76.4,31.3-76.4
			c21.1,0,19.1,63.2,33.8,63.2c11.1,0,21.9-97.4,37.7-97.4c11.8,0,21.5,76.4,37.2,76.4c19.4,0,36.2-157.6,51.9-167.4
			c15.7-9.8,33.3,193.9,50.9,193.9c18.1,0,25.5-127.3,43.1-78.3s31.8,27.4,49-49c6.2-27.8,47-3.9,66.6,49
			c13.2,35.6,28.1,9,41.3-32.4C1193.5-216.9,936.9-389,640-389z"/>
		<path class="st27" d="M1212.8,615.6c-33.5,0-97.4,82.2-114.6,82.2c-23.5,0-158.1-32.8-174.8-36.7c-31.6-7.3-24.2-90.3-44.8-90.3
			c-9.5,0-50.4,134.4-77.8,151.3c-17.9,11-58,27.7-99.1-62.4c-8.7-19.1-94.2-66.6-109.7-67.6c-46-2.9-243.8,52.9-243.8,52.9
			S194.8,320.4,164.1,320.4c-49.9,0-57.3,36.7-91.1,1.5c-23.8-24.8-41.1-123.4-99.9-91.1c-23.1,12.7-53.5,37.3-81.8,62.3
			c-2.1,23-3.3,46.3-3.3,69.8c0,195.8,74.9,374.2,197.6,508l1050.3,57.1c78.5-69,142.5-154,186.9-249.9
			C1276,652.3,1229,615.6,1212.8,615.6z"/>
		<path class="st14" d="M1139.4,724.3c-51.8,46.1-55.8,94-138.1,79.3c-23.2-4.1-70.5,74.9-105.8,47c-73.3-58-102.8-42.6-141-42.6
			s-45.1-94.5-63.6-94.5c-34.8,0-24.5,81.3-59.7,81.3c-27.7,0-22-159.6-48-159.6c-37.2,0-26.9,71.5-57.8,71.5
			c-25,0-64.6-326.1-73.4-487.6c-7.3-133.7-10-275.3,17.6-299.6c49.9-44.1,64.6,370.1,108.7,370.1c48.5,0,52.9-349.6,79.3-349.6
			s32.3,138.1,49.9,135.1s47-196.8,61.7-196.8s44.1,232.1,58.8,232.1s44.1-226.2,58.8-226.2s29.4,138.1,47,138.1
			s52.9-161.6,73.4-164.5s52.9,220.3,76.4,220.3s35.2-226.2,52.9-226.2s55.8,314.3,73.4,314.3c10.9,0,46.3-110.5,71.9-195.3
			C1149.6-245,911.6-389,640-389C367.3-389,128.5-243.9-3.3-26.6c25.2,1,52.2,260.4,73.4,260.4c44.1,0,42.3-300.3,64.6-334.9
			c29.4-45.5,78.3,5.9,88.1,138.1c12.3,166-7.7,430.8-41.1,452.4c-16.9,10.9-38-74.5-57.3-74.5c-40.8,0-69.4,142.5-92.9,142.5
			s-61.3-200.2-93.7-197.3c-11.4,1-29.6,21.4-48.5,47.3C-87.6,802,239.6,1115,640,1115c291.7,0,544.4-166.2,669.1-408.9
			C1209.9,684.7,1165.8,700.8,1139.4,724.3z"/>
	</g>
</g>
<g id="Layer_4">
</g>
</svg>
